<mxfile host="app.diagrams.net" modified="2023-12-08T04:05:28.862Z" agent="Mozilla/5.0 (Windows NT 10.0; Win64; x64) AppleWebKit/537.36 (KHTML, like Gecko) Chrome/120.0.0.0 Safari/537.36" etag="nf6nlPX51-q6lfeAY_kO" version="22.1.7" type="github">
  <diagram name="Página-1" id="w6We-fZD01-5oMfe1Dui">
    <mxGraphModel dx="733" dy="365" grid="1" gridSize="10" guides="1" tooltips="1" connect="1" arrows="1" fold="1" page="1" pageScale="1" pageWidth="827" pageHeight="1169" math="0" shadow="0">
      <root>
        <mxCell id="0" />
        <mxCell id="1" parent="0" />
        <mxCell id="uyD7h9qCF1N0zWy-ZaSg-9" value="" style="edgeStyle=orthogonalEdgeStyle;rounded=0;orthogonalLoop=1;jettySize=auto;html=1;" edge="1" parent="1" source="uyD7h9qCF1N0zWy-ZaSg-1" target="uyD7h9qCF1N0zWy-ZaSg-8">
          <mxGeometry relative="1" as="geometry" />
        </mxCell>
        <mxCell id="uyD7h9qCF1N0zWy-ZaSg-1" value="Usuario" style="shape=umlActor;verticalLabelPosition=bottom;verticalAlign=top;html=1;outlineConnect=0;" vertex="1" parent="1">
          <mxGeometry x="90" y="310" width="30" height="60" as="geometry" />
        </mxCell>
        <mxCell id="uyD7h9qCF1N0zWy-ZaSg-27" value="" style="edgeStyle=orthogonalEdgeStyle;rounded=0;orthogonalLoop=1;jettySize=auto;html=1;" edge="1" parent="1" source="uyD7h9qCF1N0zWy-ZaSg-2" target="uyD7h9qCF1N0zWy-ZaSg-26">
          <mxGeometry relative="1" as="geometry" />
        </mxCell>
        <mxCell id="uyD7h9qCF1N0zWy-ZaSg-2" value="Sensores" style="shape=umlActor;verticalLabelPosition=bottom;verticalAlign=top;html=1;outlineConnect=0;" vertex="1" parent="1">
          <mxGeometry x="585" y="310" width="30" height="60" as="geometry" />
        </mxCell>
        <mxCell id="uyD7h9qCF1N0zWy-ZaSg-19" value="" style="edgeStyle=orthogonalEdgeStyle;rounded=0;orthogonalLoop=1;jettySize=auto;html=1;" edge="1" parent="1" source="uyD7h9qCF1N0zWy-ZaSg-3" target="uyD7h9qCF1N0zWy-ZaSg-18">
          <mxGeometry relative="1" as="geometry" />
        </mxCell>
        <mxCell id="uyD7h9qCF1N0zWy-ZaSg-3" value="Robot" style="shape=umlActor;verticalLabelPosition=bottom;verticalAlign=top;html=1;outlineConnect=0;" vertex="1" parent="1">
          <mxGeometry x="330" y="225" width="30" height="60" as="geometry" />
        </mxCell>
        <mxCell id="uyD7h9qCF1N0zWy-ZaSg-36" value="" style="edgeStyle=orthogonalEdgeStyle;rounded=0;orthogonalLoop=1;jettySize=auto;html=1;" edge="1" parent="1" source="uyD7h9qCF1N0zWy-ZaSg-6" target="uyD7h9qCF1N0zWy-ZaSg-35">
          <mxGeometry relative="1" as="geometry" />
        </mxCell>
        <mxCell id="uyD7h9qCF1N0zWy-ZaSg-6" value="Sistema" style="shape=umlActor;verticalLabelPosition=bottom;verticalAlign=top;html=1;outlineConnect=0;" vertex="1" parent="1">
          <mxGeometry x="300" y="452.5" width="30" height="60" as="geometry" />
        </mxCell>
        <mxCell id="uyD7h9qCF1N0zWy-ZaSg-14" value="" style="edgeStyle=orthogonalEdgeStyle;rounded=0;orthogonalLoop=1;jettySize=auto;html=1;" edge="1" parent="1" source="uyD7h9qCF1N0zWy-ZaSg-8" target="uyD7h9qCF1N0zWy-ZaSg-13">
          <mxGeometry relative="1" as="geometry" />
        </mxCell>
        <mxCell id="uyD7h9qCF1N0zWy-ZaSg-8" value="Encender robot" style="whiteSpace=wrap;html=1;verticalAlign=top;" vertex="1" parent="1">
          <mxGeometry x="57.5" y="240" width="95" height="30" as="geometry" />
        </mxCell>
        <mxCell id="uyD7h9qCF1N0zWy-ZaSg-15" value="" style="edgeStyle=orthogonalEdgeStyle;rounded=0;orthogonalLoop=1;jettySize=auto;html=1;" edge="1" parent="1" source="uyD7h9qCF1N0zWy-ZaSg-13" target="uyD7h9qCF1N0zWy-ZaSg-3">
          <mxGeometry relative="1" as="geometry" />
        </mxCell>
        <mxCell id="uyD7h9qCF1N0zWy-ZaSg-13" value="Hacer diagnóstico" style="whiteSpace=wrap;html=1;verticalAlign=top;" vertex="1" parent="1">
          <mxGeometry x="180" y="237.5" width="120" height="35" as="geometry" />
        </mxCell>
        <mxCell id="uyD7h9qCF1N0zWy-ZaSg-21" value="" style="edgeStyle=orthogonalEdgeStyle;rounded=0;orthogonalLoop=1;jettySize=auto;html=1;" edge="1" parent="1" source="uyD7h9qCF1N0zWy-ZaSg-18" target="uyD7h9qCF1N0zWy-ZaSg-20">
          <mxGeometry relative="1" as="geometry" />
        </mxCell>
        <mxCell id="uyD7h9qCF1N0zWy-ZaSg-18" value="Identificar zona de exploración" style="whiteSpace=wrap;html=1;verticalAlign=top;" vertex="1" parent="1">
          <mxGeometry x="395" y="237.5" width="105" height="35" as="geometry" />
        </mxCell>
        <mxCell id="uyD7h9qCF1N0zWy-ZaSg-25" value="" style="edgeStyle=orthogonalEdgeStyle;rounded=0;orthogonalLoop=1;jettySize=auto;html=1;" edge="1" parent="1" source="uyD7h9qCF1N0zWy-ZaSg-20" target="uyD7h9qCF1N0zWy-ZaSg-2">
          <mxGeometry relative="1" as="geometry" />
        </mxCell>
        <mxCell id="uyD7h9qCF1N0zWy-ZaSg-20" value="Avanzar a zona de exploración" style="whiteSpace=wrap;html=1;verticalAlign=top;align=center;" vertex="1" parent="1">
          <mxGeometry x="540" y="237.5" width="120" height="35" as="geometry" />
        </mxCell>
        <mxCell id="uyD7h9qCF1N0zWy-ZaSg-31" value="" style="edgeStyle=orthogonalEdgeStyle;rounded=0;orthogonalLoop=1;jettySize=auto;html=1;" edge="1" parent="1" source="uyD7h9qCF1N0zWy-ZaSg-26" target="uyD7h9qCF1N0zWy-ZaSg-30">
          <mxGeometry relative="1" as="geometry" />
        </mxCell>
        <mxCell id="uyD7h9qCF1N0zWy-ZaSg-26" value="Detectar obstáculos" style="whiteSpace=wrap;html=1;verticalAlign=top;" vertex="1" parent="1">
          <mxGeometry x="540" y="410" width="120" height="30" as="geometry" />
        </mxCell>
        <mxCell id="uyD7h9qCF1N0zWy-ZaSg-33" value="" style="edgeStyle=orthogonalEdgeStyle;rounded=0;orthogonalLoop=1;jettySize=auto;html=1;" edge="1" parent="1" source="uyD7h9qCF1N0zWy-ZaSg-30" target="uyD7h9qCF1N0zWy-ZaSg-32">
          <mxGeometry relative="1" as="geometry" />
        </mxCell>
        <mxCell id="uyD7h9qCF1N0zWy-ZaSg-30" value="Evadir obstáculos&lt;br&gt;" style="whiteSpace=wrap;html=1;verticalAlign=top;" vertex="1" parent="1">
          <mxGeometry x="540" y="470" width="120" height="25" as="geometry" />
        </mxCell>
        <mxCell id="uyD7h9qCF1N0zWy-ZaSg-34" value="" style="edgeStyle=orthogonalEdgeStyle;rounded=0;orthogonalLoop=1;jettySize=auto;html=1;" edge="1" parent="1" source="uyD7h9qCF1N0zWy-ZaSg-32" target="uyD7h9qCF1N0zWy-ZaSg-6">
          <mxGeometry relative="1" as="geometry" />
        </mxCell>
        <mxCell id="uyD7h9qCF1N0zWy-ZaSg-32" value="Escanear entorno" style="whiteSpace=wrap;html=1;verticalAlign=top;" vertex="1" parent="1">
          <mxGeometry x="380" y="468.75" width="120" height="27.5" as="geometry" />
        </mxCell>
        <mxCell id="uyD7h9qCF1N0zWy-ZaSg-38" value="" style="edgeStyle=orthogonalEdgeStyle;rounded=0;orthogonalLoop=1;jettySize=auto;html=1;" edge="1" parent="1" source="uyD7h9qCF1N0zWy-ZaSg-35" target="uyD7h9qCF1N0zWy-ZaSg-37">
          <mxGeometry relative="1" as="geometry" />
        </mxCell>
        <mxCell id="uyD7h9qCF1N0zWy-ZaSg-35" value="Guardar información" style="whiteSpace=wrap;html=1;verticalAlign=top;" vertex="1" parent="1">
          <mxGeometry x="152.5" y="468.75" width="120" height="27.5" as="geometry" />
        </mxCell>
        <mxCell id="uyD7h9qCF1N0zWy-ZaSg-39" value="" style="edgeStyle=orthogonalEdgeStyle;rounded=0;orthogonalLoop=1;jettySize=auto;html=1;" edge="1" parent="1" source="uyD7h9qCF1N0zWy-ZaSg-37" target="uyD7h9qCF1N0zWy-ZaSg-1">
          <mxGeometry relative="1" as="geometry" />
        </mxCell>
        <mxCell id="uyD7h9qCF1N0zWy-ZaSg-37" value="Compartir información" style="whiteSpace=wrap;html=1;verticalAlign=top;" vertex="1" parent="1">
          <mxGeometry x="10" y="463.75" width="120" height="37.5" as="geometry" />
        </mxCell>
      </root>
    </mxGraphModel>
  </diagram>
</mxfile>
